<svg xmlns="http://www.w3.org/2000/svg" viewBox="0 0 1600 1000"><defs><linearGradient id="g" x1="0" y1="0" x2="1" y2="1"><stop offset="0" stop-color="#0D0D0F"/><stop offset="1" stop-color="#171A22"/></linearGradient><filter id="shadow" x="-20%" y="-20%" width="140%" height="140%"><feDropShadow dx="0" dy="22" stdDeviation="28" flood-color="#000" flood-opacity=".35"/></filter></defs><rect width="1600" height="1000" fill="#F3EEE8"/><circle cx="270" cy="190" r="210" fill="#0066FF" opacity=".12"/><g filter="url(#shadow)"><rect x="180" y="130" width="1240" height="740" rx="30" fill="#FFFDFB"/><rect x="180" y="130" width="1240" height="92" rx="30" fill="#FFFDFB"/><text x="245" y="188" font-family="Georgia" font-size="36" fill="#221D1A">Dudôce</text><rect x="245" y="278" width="670" height="500" rx="24" fill="#E9D8CA"/><circle cx="580" cy="530" r="168" fill="#C28B64"/><circle cx="580" cy="530" r="128" fill="#F1CBA9"/><path d="M500 520 C520 445 650 430 690 520 C650 610 530 620 500 520Z" fill="#6E3C28"/><text x="980" y="350" font-family="Georgia" font-size="62" fill="#251F1B">feito para</text><text x="980" y="420" font-family="Georgia" font-size="62" fill="#251F1B">dar vontade.</text><rect x="980" y="500" width="280" height="58" rx="29" fill="#0D0D0F"/><text x="1055" y="538" font-family="Arial" font-size="18" fill="#F2F2F2">COMPRAR</text><g fill="#B8ADA6"><rect x="980" y="625" width="280" height="16" rx="8"/><rect x="980" y="661" width="205" height="16" rx="8"/></g></g><text x="104" y="930" font-family="Arial" font-size="22" fill="#5C534D">E-COMMERCE / WEB EXPERIENCE</text></svg>