<svg xmlns="http://www.w3.org/2000/svg" viewBox="0 0 1600 1000"><defs><linearGradient id="g" x1="0" y1="0" x2="1" y2="1"><stop offset="0" stop-color="#0D0D0F"/><stop offset="1" stop-color="#171A22"/></linearGradient><filter id="shadow" x="-20%" y="-20%" width="140%" height="140%"><feDropShadow dx="0" dy="22" stdDeviation="28" flood-color="#000" flood-opacity=".35"/></filter></defs><rect width="1600" height="1000" fill="url(#g)"/><circle cx="1360" cy="120" r="260" fill="#0066FF" opacity=".16"/><g filter="url(#shadow)"><rect x="210" y="145" width="1180" height="710" rx="28" fill="#F1F2F3"/><rect x="210" y="145" width="250" height="710" rx="28" fill="#101116"/><rect x="460" y="145" width="930" height="92" fill="#FAFAFB"/><text x="520" y="202" font-family="Arial" font-size="28" fill="#0D0D0F">OnTable / Operação</text><g fill="#0066FF"><rect x="510" y="300" width="250" height="130" rx="18"/><rect x="790" y="300" width="250" height="130" rx="18" opacity=".76"/><rect x="1070" y="300" width="250" height="130" rx="18" opacity=".48"/></g><g fill="#D9DCE3"><rect x="510" y="485" width="810" height="44" rx="10"/><rect x="510" y="552" width="810" height="44" rx="10"/><rect x="510" y="619" width="810" height="44" rx="10"/><rect x="510" y="686" width="610" height="44" rx="10"/></g><g fill="#F2F2F2" opacity=".72"><rect x="260" y="245" width="140" height="16" rx="8"/><rect x="260" y="292" width="105" height="12" rx="6"/><rect x="260" y="362" width="122" height="12" rx="6"/><rect x="260" y="432" width="96" height="12" rx="6"/></g></g><text x="100" y="910" font-family="Arial" font-size="56" fill="#F2F2F2">ONTABLE</text><text x="100" y="958" font-family="Arial" font-size="22" fill="#8E93A0">restaurant systems / realtime operations</text></svg>